<?xml version="1.0" encoding="UTF-8"?>
<svg width="240px" height="17px" viewBox="0 0 240 17" version="1.1" xmlns="http://www.w3.org/2000/svg" xmlns:xlink="http://www.w3.org/1999/xlink">
    <!-- Generator: sketchtool 41.2 (35397) - http://www.bohemiancoding.com/sketch -->
    <title>A1D4F33B-C616-4A9F-9A4C-3C8A8350FA02</title>
    <desc>Created with sketchtool.</desc>
    <defs></defs>
    <g id="Headers" stroke="none" stroke-width="1" fill="none" fill-rule="evenodd">
        <g id="1280---Active-section---Logged-In---Option:-Long-labels-1" transform="translate(-141.000000, -50.000000)" fill="#FFFFFF">
            <g id="1280">
                <g id="TOP">
                    <path d="M159.152,50.574 L155.066,50.574 L150.026,62.112 L145.418,50.574 L141.512,50.574 L141.512,66 L144.104,66 L144.104,54.192 L148.856,66 L150.656,66 L155.48,54.426 L155.48,66 L159.152,66 L159.152,50.574 Z M170.186,50.574 L166.586,50.574 L160.844,66 L163.4,66 L164.93,61.806 L170.204,61.806 L171.716,66 L175.91,66 L170.186,50.574 Z M169.538,59.898 L165.596,59.898 L167.576,54.39 L169.538,59.898 Z M189.086,50.574 L189.086,61.266 C186.296,57.486 180.644,50.556 180.644,50.574 L177.494,50.574 L177.494,66 L180.986,66 L180.968,55.218 L189.464,66 L192.578,66 L192.578,50.574 L189.086,50.574 Z M203.9,50.25 C198.806,50.25 194.864,53.148 194.882,58.224 C194.918,60.978 196.25,66.306 203.972,66.306 C206.096,66.36 207.392,65.766 208.688,64.974 L207.716,63.192 C207.104,63.66 206.114,64.308 204.35,64.308 C200.606,64.308 198.878,60.852 198.878,58.242 C198.878,54.372 201.596,52.266 204.35,52.284 C206.15,52.302 207.104,52.986 207.734,53.4 L207.752,53.4 L208.598,51.6 C207.536,50.862 206.186,50.25 203.9,50.25 Z M221.252,50.574 L221.252,56.946 L214.592,56.946 L214.592,50.574 L210.776,50.574 L210.776,66 L214.592,66 L214.592,58.998 L221.252,58.998 L221.252,66 L225.068,66 L225.068,50.574 L221.252,50.574 Z M231.89,63.966 L231.89,58.998 L236.966,58.998 L236.966,56.946 L231.89,56.946 L231.89,52.608 L237.092,52.608 L237.092,50.574 L228.074,50.574 L228.074,66 L238.028,66 L238.028,63.966 L231.89,63.966 Z M245.156,66.342 C248.468,66.342 250.988,64.524 250.988,61.716 C251.024,59.754 250.322,58.53 247.964,57.072 C247.298,56.622 246.686,56.406 246.128,56.028 C245.102,55.38 244.058,54.912 244.058,53.958 C244.058,52.95 245.228,52.284 246.542,52.284 C247.91,52.284 248.918,53.022 249.53,53.598 L250.7,51.978 C249.44,50.988 248.036,50.25 245.84,50.25 C242.042,50.25 240.044,52.104 240.026,54.21 C240.008,56.37 241.088,57.522 242.618,58.44 C242.618,58.44 243.536,58.944 244.112,59.304 C245.354,59.97 247.028,60.906 247.028,62.382 C247.028,63.786 246.434,64.308 244.688,64.308 C242.852,64.272 241.754,63.444 240.89,62.652 L239.612,64.434 C240.764,65.514 242.492,66.342 245.156,66.342 Z M252.338,50.574 L252.338,52.608 L256.784,52.608 L256.784,66 L260.582,66 L260.582,52.608 L264.992,52.608 L264.992,50.574 L252.338,50.574 Z M270.446,63.966 L270.446,58.998 L275.522,58.998 L275.522,56.946 L270.446,56.946 L270.446,52.608 L275.648,52.608 L275.648,50.574 L266.63,50.574 L266.63,66 L276.584,66 L276.584,63.966 L270.446,63.966 Z M288.5,59.25 C288.536,59.25 290.966,58.314 290.966,54.984 C290.966,51.834 288.824,50.574 284.9,50.574 L278.618,50.574 L278.618,66 L282.416,66 L282.416,59.862 L284.774,59.844 L287.654,66.36 L291.938,65.586 L288.5,59.25 Z M284,52.608 C285.782,52.608 286.988,53.418 286.988,55.074 C286.988,56.838 285.836,57.864 284.072,57.864 L282.416,57.864 L282.416,52.608 L284,52.608 Z M309.344,50.574 L309.344,59.592 C309.344,62.292 308.588,64.434 306.014,64.398 C303.296,64.38 302.63,62.31 302.648,59.61 L302.648,50.574 L298.85,50.574 L298.85,60.114 C298.85,65.388 302.99,66.324 306.014,66.342 C308.714,66.378 313.142,65.352 313.142,60.132 L313.16,50.574 L309.344,50.574 Z M327.65,50.574 L327.65,61.266 C324.86,57.486 319.208,50.556 319.208,50.574 L316.058,50.574 L316.058,66 L319.55,66 L319.532,55.218 L328.028,66 L331.142,66 L331.142,50.574 L327.65,50.574 Z M338,50.574 L334.184,50.574 L334.184,66 L338,66 L338,50.574 Z M339.638,50.574 L339.638,52.608 L344.084,52.608 L344.084,66 L347.882,66 L347.882,52.608 L352.292,52.608 L352.292,50.574 L339.638,50.574 Z M357.746,63.966 L357.746,58.998 L362.822,58.998 L362.822,56.946 L357.746,56.946 L357.746,52.608 L362.948,52.608 L362.948,50.574 L353.93,50.574 L353.93,66 L363.884,66 L363.884,63.966 L357.746,63.966 Z M372.02,50.574 L366.08,50.574 L366.08,66 L371.732,66 C377.996,66 380.948,62.544 380.948,57.882 C380.948,52.77 377.402,50.574 372.02,50.574 Z M376.934,57.864 C376.916,61.752 375.296,63.966 371.732,63.966 L369.896,63.966 L369.896,52.608 L372.038,52.608 C375.818,52.608 376.952,55.056 376.934,57.864 Z" id="manchester-united"></path>
                </g>
            </g>
        </g>
    </g>
</svg>